<?xml version="1.0" encoding="UTF-8" standalone="no"?>
<!DOCTYPE svg PUBLIC "-//W3C//DTD SVG 1.1//EN" "http://www.w3.org/Graphics/SVG/1.1/DTD/svg11.dtd">
<svg width="100%" height="100%" viewBox="0 0 32 32" version="1.1" xmlns="http://www.w3.org/2000/svg" xmlns:xlink="http://www.w3.org/1999/xlink" xml:space="preserve" xmlns:serif="http://www.serif.com/" style="fill-rule:evenodd;clip-rule:evenodd;stroke-linecap:round;stroke-linejoin:round;">
    <g transform="matrix(0.0992221,0,0,0.0992221,-10.9753,-10.8892)">
        <path d="M196,143.5C154.856,143.5 121,177.356 121,218.5C121,300.788 181.941,368.5 256,368.5C268.799,368.5 281.207,366.477 292.976,362.707M151,218.5C151,284.33 198.399,338.5 256,338.5M316,173.5C340.686,173.5 361,193.814 361,218.5M382.704,269.997C388.066,253.907 391,236.555 391,218.5C391,177.356 357.144,143.5 316,143.5C283.085,143.5 256,170.585 256,203.5C256,170.585 228.915,143.5 196,143.5M332.736,218.5C332.736,267.873 292.108,308.5 242.736,308.5C292.108,308.5 332.736,349.127 332.736,398.5C332.736,349.127 373.363,308.5 422.736,308.5C373.363,308.5 332.736,267.873 332.736,218.5" style="fill:none;fill-rule:nonzero;stroke:rgb(10,10,10);stroke-width:16px;"/>
    </g>
</svg>
